<svg width="530" height="500" viewBox="0 0 530 500" fill="none" xmlns="http://www.w3.org/2000/svg">
<path d="M500 250C500 388.071 388.071 500 250 500C111.929 500 0 388.071 0 250H83.3333C83.3333 342.047 157.953 416.667 250 416.667C342.047 416.667 416.667 342.047 416.667 250H500Z" fill="#0082FF"/>
<path d="M530 250C530 111.929 418.071 -3.05176e-05 280 -3.05176e-05C141.929 -3.05176e-05 30 111.929 30 250H113.333C113.333 157.953 187.953 83.3333 280 83.3333C372.047 83.3333 446.667 157.953 446.667 250H530Z" fill="#0082FF"/>
<path d="M312.948 202.974V108L123 297.948H217.974V392L407 202.974H312.948Z" fill="#FAFAFA"/>
</svg>
