<svg width="326" height="315" viewBox="0 0 326 315" fill="none" xmlns="http://www.w3.org/2000/svg">
<path d="M5.39936 209.98L18.255 99.5171C19.3437 90.1622 24.7622 81.8617 32.8881 77.1007L147.608 9.88564C156.974 4.39814 168.574 4.39814 177.94 9.88565L292.66 77.1007C300.786 81.8617 306.205 90.1622 307.293 99.5171L320.149 209.98C321.593 222.385 315.201 234.386 304.101 240.111L176.525 305.908C167.898 310.357 157.651 310.357 149.023 305.908L21.447 240.111C10.3478 234.386 3.95571 222.385 5.39936 209.98Z" fill="url(#paint0_linear_2_52)"/>
<path d="M157.719 3.96188L34.6689 76.0573C28.0852 79.9147 28.0748 89.3831 34.7019 93.1655C66.5148 111.323 140.603 152.333 162.774 153.5C185.051 154.672 259.742 111.954 291.299 93.2426C297.789 89.3942 297.708 80.0584 291.198 76.244L167.829 3.96188C164.707 2.13271 160.841 2.13271 157.719 3.96188Z" fill="white"/>
<path d="M5.39936 209.98L18.255 99.5171C19.3437 90.1622 24.7622 81.8617 32.8881 77.1007L147.608 9.88564C156.974 4.39814 168.574 4.39814 177.94 9.88565L292.66 77.1007C300.786 81.8617 306.205 90.1622 307.293 99.5171L320.149 209.98C321.593 222.385 315.201 234.386 304.101 240.111L176.525 305.908C167.898 310.357 157.651 310.357 149.023 305.908L21.447 240.111C10.3478 234.386 3.95571 222.385 5.39936 209.98Z" stroke="black" stroke-width="10"/>
<g filter="url(#filter0_d_2_52)">
<path d="M119.717 73.6947L102 83.9264L203.479 112.452L224.032 100.582L174.601 42L156.92 52.2104L195.964 95.8597L195.265 96.2639L119.717 73.6947Z" fill="black" fill-opacity="0.85" shape-rendering="crispEdges"/>
</g>
<defs>
<filter id="filter0_d_2_52" x="98" y="42" width="130.032" height="78.4516" filterUnits="userSpaceOnUse" color-interpolation-filters="sRGB">
<feFlood flood-opacity="0" result="BackgroundImageFix"/>
<feColorMatrix in="SourceAlpha" type="matrix" values="0 0 0 0 0 0 0 0 0 0 0 0 0 0 0 0 0 0 127 0" result="hardAlpha"/>
<feOffset dy="4"/>
<feGaussianBlur stdDeviation="2"/>
<feComposite in2="hardAlpha" operator="out"/>
<feColorMatrix type="matrix" values="0 0 0 0 0 0 0 0 0 0 0 0 0 0 0 0 0 0 0.25 0"/>
<feBlend mode="normal" in2="BackgroundImageFix" result="effect1_dropShadow_2_52"/>
<feBlend mode="normal" in="SourceGraphic" in2="effect1_dropShadow_2_52" result="shape"/>
</filter>
<linearGradient id="paint0_linear_2_52" x1="163" y1="75.5" x2="162.774" y2="313" gradientUnits="userSpaceOnUse">
<stop stop-color="white"/>
<stop offset="1" stop-color="#929292"/>
</linearGradient>
</defs>
</svg>
